<?xml version="1.0" encoding="UTF-8"?><svg id="Capa_1" xmlns="http://www.w3.org/2000/svg" xmlns:xlink="http://www.w3.org/1999/xlink" viewBox="0 0 348.56 112.75"><defs><style>.cls-1{fill:#2a4993;}.cls-1,.cls-2,.cls-3{stroke-width:0px;}.cls-2{fill:url(#Degradado_sin_nombre_47);}.cls-3{fill:#fff;}</style><linearGradient id="Degradado_sin_nombre_47" x1="148.02" y1="49.49" x2="202.21" y2="143.35" gradientTransform="translate(348.56 199.07) rotate(-180)" gradientUnits="userSpaceOnUse"><stop offset="0" stop-color="#d8eaf9"/><stop offset="1" stop-color="#fff"/></linearGradient></defs><path class="cls-2" d="M96.71,86.31h155.14c6.88,0,12.46,5.58,12.46,12.46v13.98H84.25v-13.98c0-6.88,5.58-12.46,12.46-12.46Z" transform="translate(348.56 199.07) rotate(180)"/><path class="cls-1" d="M104.81,106.37v-12.31h2.28v12.31h-2.28Z"/><path class="cls-1" d="M115.09,98.46v7.91h-2.28v-12.31h1.83l6.04,8.11v-8.1h2.26v12.29h-1.88l-5.98-7.91Z"/><path class="cls-1" d="M129.82,94.06l3.17,9.48,3.12-9.48h2.39l-4.42,12.31h-2.2l-4.46-12.31h2.39Z"/><path class="cls-1" d="M151.12,104.27v2.1h-8.14v-12.31h7.99v2.1h-5.71v2.96h4.92v1.94h-4.92v3.21h5.86Z"/><path class="cls-1" d="M155.83,106.37v-12.31h5.2c.53,0,1.02.12,1.48.35s.85.54,1.19.94c.34.39.59.83.78,1.32.18.49.27.98.27,1.49s-.09,1.02-.26,1.49c-.17.47-.42.89-.73,1.26s-.69.64-1.12.84l2.67,4.63h-2.51l-2.41-4.13h-2.28v4.13h-2.28ZM158.11,100.14h2.86c.29,0,.54-.09.76-.27.22-.18.4-.42.53-.72.13-.3.2-.64.2-1.01s-.08-.72-.23-1.02c-.15-.3-.35-.54-.58-.71s-.48-.26-.76-.26h-2.77v3.99Z"/><path class="cls-1" d="M177.09,97.28c-.08-.08-.22-.19-.42-.32-.2-.13-.45-.27-.74-.41-.29-.14-.61-.25-.95-.35-.34-.09-.69-.14-1.04-.14-.62,0-1.08.12-1.39.35-.31.24-.47.58-.47,1.03,0,.33.1.6.3.79.2.2.5.36.89.5.4.14.89.29,1.49.45.77.2,1.44.43,2.01.72.57.28,1,.65,1.3,1.1.3.45.45,1.06.45,1.82,0,.64-.12,1.2-.35,1.66s-.55.84-.95,1.13-.86.51-1.39.64-1.08.2-1.66.2-1.17-.06-1.75-.19c-.58-.13-1.14-.31-1.68-.55s-1.03-.52-1.49-.86l1.01-2.06c.1.1.27.24.53.41s.56.34.92.5c.36.17.76.31,1.19.43.43.12.86.17,1.3.17.63,0,1.1-.11,1.4-.32.31-.21.46-.52.46-.93,0-.37-.12-.66-.37-.87-.25-.21-.6-.4-1.05-.55-.45-.16-.99-.32-1.6-.49-.75-.22-1.37-.47-1.86-.74s-.86-.62-1.11-1.03-.37-.92-.37-1.55c0-.84.19-1.54.58-2.11.39-.57.9-1,1.55-1.3.65-.29,1.37-.44,2.16-.44.55,0,1.07.06,1.56.19.49.13.95.29,1.38.5.43.21.81.43,1.16.68l-1.01,1.94Z"/><path class="cls-1" d="M183.5,106.37v-12.31h2.28v12.31h-2.28Z"/><path class="cls-1" d="M196.58,106.45c-.86,0-1.63-.17-2.33-.52-.69-.35-1.29-.82-1.8-1.41-.51-.6-.9-1.27-1.17-2.01-.28-.75-.41-1.51-.41-2.3s.15-1.6.44-2.35c.29-.75.69-1.41,1.21-1.99.51-.58,1.12-1.05,1.82-1.39.7-.34,1.47-.51,2.3-.51s1.62.18,2.32.54,1.3.84,1.79,1.44c.5.6.88,1.27,1.15,2.01.27.74.4,1.5.4,2.29s-.14,1.59-.42,2.33c-.28.75-.68,1.41-1.19,1.99-.51.58-1.12,1.04-1.82,1.38-.7.34-1.46.5-2.29.5ZM193.18,100.21c0,.53.08,1.05.23,1.54.15.5.38.94.67,1.33.29.39.65.69,1.07.92.42.23.91.34,1.44.34s1.05-.12,1.47-.36c.42-.24.77-.55,1.06-.94s.51-.84.65-1.34.21-.99.21-1.49c0-.53-.08-1.04-.23-1.53-.15-.49-.38-.93-.68-1.32-.3-.39-.66-.69-1.07-.92-.42-.23-.9-.34-1.44-.34s-1.02.12-1.44.36c-.42.24-.78.55-1.07.94-.29.39-.51.83-.66,1.32-.15.49-.22.99-.22,1.5Z"/><path class="cls-1" d="M209.68,98.46v7.91h-2.28v-12.31h1.83l6.04,8.11v-8.1h2.26v12.29h-1.88l-5.98-7.91Z"/><path class="cls-1" d="M231.42,104.27v2.1h-8.14v-12.31h7.99v2.1h-5.71v2.96h4.92v1.94h-4.92v3.21h5.86Z"/><path class="cls-1" d="M243.05,97.28c-.08-.08-.22-.19-.42-.32-.2-.13-.45-.27-.74-.41-.29-.14-.61-.25-.95-.35-.34-.09-.69-.14-1.04-.14-.62,0-1.08.12-1.4.35-.31.24-.47.58-.47,1.03,0,.33.1.6.3.79s.49.36.89.5c.4.14.89.29,1.49.45.77.2,1.44.43,2.01.72.57.28,1,.65,1.3,1.1s.45,1.06.45,1.82c0,.64-.12,1.2-.35,1.66-.23.46-.55.84-.95,1.13s-.86.51-1.39.64-1.08.2-1.66.2-1.17-.06-1.75-.19-1.14-.31-1.67-.55c-.53-.24-1.03-.52-1.49-.86l1.01-2.06c.1.1.27.24.53.41.25.17.56.34.92.5.36.17.76.31,1.19.43.43.12.86.17,1.31.17.63,0,1.09-.11,1.4-.32.31-.21.46-.52.46-.93,0-.37-.12-.66-.37-.87-.25-.21-.6-.4-1.05-.55-.45-.16-.99-.32-1.6-.49-.75-.22-1.37-.47-1.86-.74-.49-.28-.86-.62-1.11-1.03-.25-.41-.37-.92-.37-1.55,0-.84.19-1.54.58-2.11.39-.57.9-1,1.55-1.3.65-.29,1.37-.44,2.16-.44.55,0,1.07.06,1.56.19.49.13.95.29,1.38.5.43.21.82.43,1.16.68l-1.01,1.94Z"/><path class="cls-3" d="M0,72.86h27.55v-8.05c0-1.4-.84-2.2-2.32-2.2h-13.57v-6.79h12.16c1.48,0,2.32-.8,2.32-2.2v-5.79c0-1.4-.84-2.2-2.32-2.2h-12.16v-6.12h13.57c1.48,0,2.32-.8,2.32-2.2v-8.05H0v43.6Z"/><path class="cls-3" d="M56.03,62.67h-13.78v-31.22c0-1.4-.84-2.2-2.32-2.2h-9.35v43.6h27.77v-7.99c0-1.4-.84-2.2-2.32-2.2Z"/><path class="cls-3" d="M91.2,49.9c5.06-1.54,7.59-5.02,7.59-9.2v-.84c0-5.58-5.18-10.25-15.44-10.58v-.03h-14.93v43.6h14.93c12.35-.24,17.05-5.24,17.05-12.28v-1.03c0-5.02-3.51-8.68-9.21-9.64ZM87.13,41.74v.84c0,2.19-1.41,3.67-4.29,3.67h-2.74v-7.65c.91-.06,1.34-.06,2.04-.06,3.58,0,4.99,1.09,4.99,3.22ZM88.74,59.74c0,2.25-1.55,3.67-5.9,3.67-1.12,0-1.69,0-2.74-.06v-8.04h3.09c3.94,0,5.55,1.35,5.55,3.54v.9Z"/><path class="cls-3" d="M111.78,29.26h-9.35v43.6h11.67V31.46c0-1.4-.84-2.2-2.32-2.2Z"/><path class="cls-3" d="M117.8,72.86h27.55v-8.05c0-1.4-.84-2.2-2.32-2.2h-13.57v-6.79h12.16c1.48,0,2.32-.8,2.32-2.2v-5.79c0-1.4-.84-2.2-2.32-2.2h-12.16v-6.12h13.57c1.48,0,2.32-.8,2.32-2.2v-8.05h-27.55v43.6Z"/><path class="cls-3" d="M170.15,31.46v20.63l-7.1-21.03c-.42-1.2-1.27-1.8-2.67-1.8h-12.02v43.6h8.79c1.48,0,2.32-.8,2.32-2.2v-20.63l7.45,21.03c.42,1.2,1.27,1.8,2.6,1.8h11.74V29.26h-8.79c-1.48,0-2.32.8-2.32,2.2Z"/><path class="cls-3" d="M184.32,72.86h27.55v-8.05c0-1.4-.84-2.2-2.32-2.2h-13.57v-6.79h12.16c1.48,0,2.32-.8,2.32-2.2v-5.79c0-1.4-.84-2.2-2.32-2.2h-12.16v-6.12h13.57c1.48,0,2.32-.8,2.32-2.2v-8.05h-27.55v43.6Z"/><path class="cls-3" d="M234.01,46.44l-5.69-1.71c-2.18-.72-2.74-1.45-2.74-2.77v-.86c0-1.58,1.12-2.63,3.87-2.63,2.11,0,5.62.46,8.72.99,1.76.33,2.67-.4,2.74-2.11l.14-7.77c-5.62-.79-9-1.12-11.95-1.12-10.54,0-15.18,4.61-15.18,12.91v.66c0,7.11,2.46,10.07,9.84,12.38l6.26,1.98c1.41.46,2.04,1.25,2.04,2.7v1.05c0,1.71-1.34,2.9-5.41,2.9-2.32,0-5.83-.53-9-1.25-1.62-.4-2.53.4-2.53,1.91l-.07,7.9c5.62,1.12,9.28,1.58,12.02,1.58,11.88,0,16.66-4.54,16.66-12.97v-1.25c0-7.05-2.67-10.4-9.7-12.51Z"/><path class="cls-3" d="M278.72,37.32v-8.05h-35v8.05c0,1.4.84,2.2,2.32,2.2h9.35v33.35h9.35c1.48,0,2.32-.8,2.32-2.2v-31.15h9.35c1.48,0,2.32-.8,2.32-2.2Z"/><path class="cls-3" d="M285.68,29.26l-13,43.6h10.05c1.41,0,2.25-.67,2.53-1.93l1.26-5.92h11.6l1.27,5.92c.28,1.26,1.12,1.93,2.53,1.93h10.26l-13-43.6h-13.5ZM288.42,55.95l3.94-18.04,3.87,18.04h-7.8Z"/><path class="cls-3" d="M337.87,54.14c4.22-2.49,6.54-6.42,6.54-10.67v-1.44c0-7.84-5.12-12.75-17.17-12.76h0s-13.82,0-13.82,0v43.6h9.35c1.48,0,2.32-.79,2.32-2.16v-13.35c.77.07,1.62.07,2.25.07l7.52,13.81c.63,1.18,1.48,1.64,3.02,1.64h10.68l-10.68-18.72ZM332.74,43.53c0,2.68-1.55,4.25-5.48,4.25-.63,0-1.41,0-2.18-.07v-8.64c.63-.07,1.83-.13,2.39-.13,3.72,0,5.27,1.37,5.27,3.93v.65Z"/><path class="cls-3" d="M77.8,11.98v-6.65C77.8,1.73,79.6,0,84.56,0c1.29,0,2.72.15,4.68.43l-.03,2.01c0,.51-.37.76-.95.66-1.01-.18-2.17-.36-3.3-.36-2.66,0-3.52.69-3.52,2.75v6.27c0,2.04.92,2.73,3.52,2.73,1.13,0,2.26-.18,3.3-.36.58-.1.95.13.95.64l.03,2.07c-1.81.28-3.33.46-4.71.46-5.02,0-6.73-1.78-6.73-5.33Z"/><path class="cls-3" d="M108.6,5.63v6.04c0,3.52-2.08,5.63-6.91,5.63s-6.88-2.12-6.88-5.63v-6.04C94.81,2.07,96.89,0,101.69,0s6.91,2.07,6.91,5.63ZM98.45,5.41v6.48c0,1.76,1.1,2.68,3.24,2.68s3.24-.92,3.24-2.68v-6.45c0-1.73-1.07-2.68-3.24-2.68s-3.24.92-3.24,2.65Z"/><path class="cls-3" d="M128.58,5.63v6.04c0,3.52-2.08,5.63-6.91,5.63s-6.88-2.12-6.88-5.63v-6.04C114.79,2.07,116.87,0,121.67,0s6.91,2.07,6.91,5.63ZM118.43,5.41v6.48c0,1.76,1.1,2.68,3.24,2.68s3.24-.92,3.24-2.68v-6.45c0-1.73-1.07-2.68-3.24-2.68s-3.24.92-3.24,2.65Z"/><path class="cls-3" d="M147.83,4.87v.56c0,3.24-2.29,5.2-6.95,5.2-.64,0-1.35-.05-2.33-.18v5.84c0,.46-.31.71-.86.71h-2.78V.15c1.99-.08,3.85-.13,5.57-.15,5.05-.03,7.34,1.89,7.34,4.87ZM138.56,2.7v5.07c.95.1,1.53.15,2.08.15,2.39,0,3.52-.89,3.52-2.6v-.38c0-1.48-1.07-2.29-3.67-2.29-.92,0-1.38.03-1.93.05Z"/><path class="cls-3" d="M164.41,2.37c0,.48-.31.74-.89.74h-6.64v4.03h6.03c.58,0,.89.25.89.71v1.33c0,.46-.31.74-.89.74h-6.03v4.28h6.64c.58,0,.89.26.89.74v2.07h-11.17V.31h11.17v2.07Z"/><path class="cls-3" d="M183.44,4.69v.61c0,1.78-1.16,3.39-3.4,4.18l4.96,7.52h-3.3c-.52,0-.83-.15-1.07-.51l-4.01-6.22c-.52.05-1.53.03-2.39-.03v6.04c0,.46-.31.71-.86.71h-2.78V.15C173.22.05,175,0,176.19,0c5.11,0,7.25,1.84,7.25,4.69ZM174.23,2.73v4.87c.92.08,1.38.1,1.99.1,2.54,0,3.55-.92,3.55-2.42v-.41c0-1.45-1.01-2.19-3.55-2.19-.49,0-1.38.03-1.99.05Z"/><path class="cls-3" d="M204.65,17.01h-3.12c-.52,0-.86-.2-.98-.61l-.89-2.88h-6.36l-.89,2.88c-.12.41-.43.61-.98.61h-3L194.37.31h4.34l5.94,16.7ZM194,10.91h4.96l-2.45-8.06-2.51,8.06Z"/><path class="cls-3" d="M221.04,2.37c0,.48-.34.74-.89.74h-4.62v13.18c0,.46-.31.71-.89.71h-2.78V3.11h-4.62c-.55,0-.89-.26-.89-.74V.31h14.69v2.07Z"/><path class="cls-3" d="M229.24.31c.55,0,.86.26.86.71v15.99h-3.64V.31h2.78Z"/><path class="cls-3" d="M245.25,17.01h-4.41L235.09.31h3.09c.52,0,.86.2.98.64l3.89,13.36,3.98-13.36c.12-.43.43-.64.95-.64h3.09l-5.81,16.7Z"/><path class="cls-3" d="M269.17,17.01h-3.12c-.52,0-.86-.2-.98-.61l-.89-2.88h-6.36l-.89,2.88c-.12.41-.43.61-.98.61h-3l5.94-16.7h4.34l5.94,16.7ZM258.52,10.91h4.96l-2.45-8.06-2.51,8.06Z"/></svg>